PathFileType	4	(X/Y/Z)	Walk8.trc
DataRate	CameraRate	NumFrames	NumMarkers	Units	OrigDataRate	OrigDataStartFrame	OrigNumFrames
200.000000	200.000000	9	54	mm	200.000000	446	521
Frame#	Times		RBHD		C7		RASI		RACR1		RUA1		RElbow		RFA1		RWRU		RCAR		LACR1		LElbowM		LFA1		LWRR		RTH1		RTH3		RTH2		RLFC		RTB1		RTB3		RTB2		RTB4		RMT1		RMT5		LTH2		RTH4		LWRU		LTH3		LTH4		LElbow		LPSI		RPSI		LTB1		LLFC		T10		RWRR		LTB4		LTB3		LBHD		LTH1		LMT1		RBack		LCAL		CLAV		LTB2		LLMAL		LToe		RLMAL		LMT5		RMMAL		RElbowM		RToe		LUA1		LCAR		RCAL
			X1	Y1	Z1	X2	Y2	Z2	X3	Y3	Z3	X4	Y4	Z4	X5	Y5	Z5	X6	Y6	Z6	X7	Y7	Z7	X8	Y8	Z8	X9	Y9	Z9	X10	Y10	Z10	X11	Y11	Z11	X12	Y12	Z12	X13	Y13	Z13	X14	Y14	Z14	X15	Y15	Z15	X16	Y16	Z16	X17	Y17	Z17	X18	Y18	Z18	X19	Y19	Z19	X20	Y20	Z20	X21	Y21	Z21	X22	Y22	Z22	X23	Y23	Z23	X24	Y24	Z24	X25	Y25	Z25	X26	Y26	Z26	X27	Y27	Z27	X28	Y28	Z28	X29	Y29	Z29	X30	Y30	Z30	X31	Y31	Z31	X32	Y32	Z32	X33	Y33	Z33	X34	Y34	Z34	X35	Y35	Z35	X36	Y36	Z36	X37	Y37	Z37	X38	Y38	Z38	X39	Y39	Z39	X40	Y40	Z40	X41	Y41	Z41	X42	Y42	Z42	X43	Y43	Z43	X44	Y44	Z44	X45	Y45	Z45	X46	Y46	Z46	X47	Y47	Z47	X48	Y48	Z48	X49	Y49	Z49	X50	Y50	Z50	X51	Y51	Z51	X52	Y52	Z52	X53	Y53	Z53	X54	Y54	Z54

446	2.23	961.83	1551.7	363.66	921.83	1418.1	278.79	1029.3	929.53	400.51	976.96	1364.4	427.07	900.31	1179.7	497.29	830.31	1063.3	511.75	835.67	917.93	541.06	794.99	791.25	532.19	823.7	729.05	543.7	969.04	1415.8	104.68	880.38	1091.6	55.238	1023.1	978.41	-39.959	1094.6	892.11	7.9064	1024.5	727.72	455.22	1096.4	556.44	420.55	1121	672.36	410.72	1131.4	460.57	401.53	1162.7	371.38	314.51	1149.6	181.4	312.39	1155.8	275.1	386.69	1159.7	278.66	314.86	1238.9	35.113	271.66	1214.8	29.474	360.55	1023.3	612.6	113.68	1061.5	640.92	442.59	1030.5	860.08	-34.343	948.99	525	94.527	952.33	614.17	83.603	908.71	1096.3	-23.091	838.3	931.75	207.09	840.84	938.66	312.93	886.5	315.04	167.07	918.94	416.22	108.41	827.41	1107.9	253.55	867.14	774.76	507.14	804.63	270.64	173.56	724.76	224.01	178.55	947.94	1559	224.11	957.71	711.19	79.386	634.06	62.288	240.13	844.41	1322.5	360.76	527.24	225.3	200.82	1058.7	1337.8	266.67	786.07	295.07	108.55	585.22	208.1	153.23	666.14	35.903	223.02	1093.7	77.839	360.46	615.89	67.764	158.43	1111.4	93.115	270.59	816.23	1044.6	418.11	1290.2	38.829	291.59	940.82	1224.8	0.47435	1112.8	842.63	-39.672	1039.4	31.376	320.91
447	2.235	968.46	1552.3	364	928.48	1419.2	279.17	1035.9	930.78	400.57	984.47	1365.2	426.97	909.33	1180.1	497.55	839.89	1063.4	512.56	846.58	917.99	541.71	806.96	791.01	533.02	836.3	729.11	544.5	975.25	1417	104.85	886.28	1093.2	55.987	1027.8	978.62	-39.604	1098.5	891.42	8.0626	1030.4	728.41	455.1	1100.8	556.58	420.2	1126.4	672.32	410.41	1135.1	460.42	401.12	1165	370.83	314.21	1150.7	181.03	312.02	1157.8	274.71	386.24	1161.8	278.27	314.37	1239	35.016	271.47	1214.8	29.684	360.54	1033.5	614.13	113.39	1066.8	641.32	442.34	1034	860.24	-34.272	960.65	525.22	94.352	962.29	614.47	83.595	914.49	1097.5	-22.384	844.44	932.68	207.5	847.27	939.78	313.29	899.9	315.53	166.86	932.71	416.43	108.11	833.75	1109.1	254.07	879.09	775.13	507.63	817.46	272.08	173.18	736.92	226.41	178	954.8	1560.3	224.47	965.86	711.62	79.644	643.87	65.058	238.54	851.46	1323.5	361.66	539.18	230.29	200.04	1065.2	1338.8	266.33	799.28	296.72	108.1	597.11	212.45	152.48	675.41	38.013	220.89	1093.9	77.978	360.25	625.9	71.438	157.2	1111.5	93.041	270.27	825.3	1044.6	418.94	1290.6	38.249	291.31	947.05	1226	0.81911	1116	841.79	-39.608	1039.4	31.479	320.87
448	2.24	975.08	1553.1	364.29	935.08	1420.3	279.49	1042.5	932.03	400.62	991.94	1366	426.83	918.36	1180.6	497.81	849.53	1063.6	513.41	857.62	918.14	542.38	819.13	790.84	533.89	849.12	729.26	545.32	981.37	1418.4	104.96	892.02	1094.8	56.648	1032.4	978.89	-39.284	1102.3	890.8	8.2043	1036.3	729.11	454.97	1105.1	556.69	419.86	1131.6	672.25	410.08	1138.5	460.26	400.73	1167	370.27	313.98	1151.6	180.69	311.68	1159.6	274.33	385.83	1163.7	277.9	313.9	1239.1	34.965	271.3	1214.8	29.907	360.51	1043.6	615.84	113.06	1071.8	641.72	442.08	1037.4	860.47	-34.225	972.28	525.63	94.141	972.22	614.92	83.542	920.16	1098.8	-21.726	850.54	933.69	207.93	853.65	940.97	313.65	913.42	316.22	166.64	946.53	416.85	107.79	840.05	1110.3	254.59	891.23	775.6	508.1	830.49	273.62	172.81	749.36	228.8	177.46	961.64	1561.7	224.79	973.98	712.18	79.837	654.44	67.817	236.91	858.47	1324.5	362.54	551.39	234.88	199.33	1071.7	1339.8	265.95	812.67	298.43	107.66	609.32	216.59	151.78	685.52	40.229	218.74	1094	78.107	360.07	636.6	75.089	155.89	1111.6	92.977	269.97	834.37	1044.6	419.83	1290.9	37.759	291.04	953.17	1227.2	1.1146	1119.2	841.03	-39.543	1039.3	31.56	320.82
449	2.245	981.68	1553.9	364.53	941.61	1421.5	279.77	1049	933.28	400.66	999.36	1367	426.65	927.4	1181.2	498.05	859.22	1063.8	514.29	868.79	918.37	543.06	831.49	790.76	534.79	862.16	729.52	546.15	987.41	1419.7	105.02	897.6	1096.5	57.218	1036.8	979.22	-39.002	1105.9	890.26	8.3304	1042	729.83	454.83	1109.2	556.79	419.52	1136.7	672.15	409.74	1141.7	460.08	400.36	1168.8	369.7	313.83	1152.5	180.37	311.37	1161.2	273.96	385.47	1165.5	277.55	313.46	1239.2	34.948	271.14	1214.7	30.131	360.46	1053.6	617.73	112.69	1076.7	642.13	441.83	1040.7	860.78	-34.204	983.88	526.24	93.893	982.11	615.54	83.442	925.72	1100.1	-21.119	856.61	934.77	208.36	859.98	942.22	314.01	927.06	317.11	166.43	960.36	417.49	107.45	846.31	1111.5	255.1	903.55	776.17	508.53	843.71	275.25	172.46	762.08	231.17	176.96	968.47	1563.1	225.06	982.06	712.88	79.962	665.75	70.531	235.24	865.43	1325.6	363.4	563.87	239.05	198.7	1078.1	1340.9	265.51	826.21	300.21	107.23	621.83	220.48	151.13	696.44	42.525	216.58	1094.1	78.224	359.89	647.97	78.675	154.53	1111.7	92.922	269.7	843.43	1044.7	420.75	1291.1	37.347	290.79	959.18	1228.4	1.3612	1122.2	840.35	-39.477	1039.3	31.622	320.76
450	2.25	988.26	1554.8	364.73	948.09	1422.7	279.99	1055.4	934.53	400.7	1006.7	1368	426.42	936.43	1181.8	498.28	868.96	1064.1	515.2	880.07	918.69	543.76	844.03	790.76	535.71	875.43	729.89	546.99	993.36	1421.1	105.04	903.02	1098.2	57.697	1041.2	979.6	-38.758	1109.5	889.81	8.4398	1047.5	730.55	454.67	1113	556.86	419.19	1141.6	672.02	409.39	1144.7	459.9	400.03	1170.3	369.13	313.76	1153.2	180.06	311.1	1162.7	273.6	385.14	1167.2	277.24	313.05	1239.2	34.955	270.98	1214.7	30.35	360.39	1063.6	619.79	112.27	1081.4	642.55	441.58	1044	861.16	-34.209	995.43	527.05	93.606	991.96	616.33	83.295	931.17	1101.5	-20.563	862.64	935.92	208.79	866.27	943.52	314.36	940.8	318.2	166.2	974.17	418.34	107.08	852.54	1112.8	255.6	916.04	776.86	508.94	857.1	276.96	172.09	775.04	233.51	176.46	975.28	1564.6	225.28	990.1	713.71	80.019	677.76	73.169	233.55	872.34	1326.7	364.23	576.59	242.78	198.14	1084.5	1342	265.04	839.87	302.05	106.81	634.63	224.11	150.54	708.15	44.873	214.43	1094.3	78.331	359.73	659.99	82.155	153.12	1111.7	92.876	269.45	852.48	1044.8	421.71	1291.3	37.001	290.57	965.07	1229.7	1.5597	1125.2	839.75	-39.41	1039.3	31.668	320.71
451	2.255	994.83	1555.7	364.87	954.51	1424	280.16	1061.8	935.78	400.73	1014	1369.1	426.16	945.44	1182.6	498.51	878.74	1064.5	516.15	891.47	919.1	544.46	856.75	790.84	536.66	888.9	730.38	547.83	999.23	1422.4	105.01	908.28	1099.9	58.089	1045.4	980.04	-38.553	1112.9	889.45	8.5314	1053	731.29	454.51	1116.7	556.93	418.88	1146.4	671.87	409.04	1147.4	459.72	399.73	1171.5	368.56	313.77	1153.9	179.78	310.87	1164	273.26	384.87	1168.8	276.95	312.67	1239.2	34.978	270.84	1214.7	30.556	360.32	1073.5	622.01	111.8	1085.9	642.97	441.33	1047.1	861.61	-34.242	1006.9	528.06	93.28	1001.8	617.28	83.099	936.51	1102.8	-20.057	868.65	937.15	209.21	872.53	944.87	314.7	954.62	319.48	165.94	987.96	419.42	106.69	858.73	1114.1	256.1	928.69	777.67	509.33	870.65	278.75	171.72	788.24	235.8	175.98	982.08	1566.1	225.45	998.1	714.67	80.006	690.45	75.7	231.87	879.2	1327.9	365.03	589.53	246.05	197.67	1090.7	1343.2	264.53	853.64	303.94	106.39	647.68	227.45	150	720.63	47.242	212.31	1094.3	78.426	359.6	672.63	85.488	151.7	1111.8	92.84	269.23	861.51	1045	422.7	1291.4	36.714	290.36	970.85	1231	1.7118	1128.1	839.24	-39.344	1039.2	31.702	320.65
452	2.26	1001.4	1556.8	364.96	960.87	1425.3	280.29	1068.1	937.02	400.74	1021.2	1370.3	425.87	954.44	1183.4	498.72	888.56	1065	517.13	902.98	919.6	545.18	869.64	791.03	537.63	902.57	730.98	548.68	1005	1423.8	104.94	913.39	1101.6	58.398	1049.6	980.54	-38.387	1116.3	889.17	8.6039	1058.4	732.05	454.34	1120.2	556.99	418.6	1151	671.7	408.69	1149.9	459.54	399.47	1172.5	368	313.85	1154.6	179.53	310.67	1165.2	272.93	384.64	1170.3	276.69	312.32	1239.2	35.01	270.72	1214.6	30.746	360.23	1083.3	624.4	111.28	1090.3	643.42	441.09	1050.2	862.12	-34.303	1018.4	529.26	92.912	1011.5	618.39	82.854	941.73	1104.2	-19.601	874.65	938.43	209.6	878.75	946.27	315.02	968.5	320.94	165.64	1001.7	420.71	106.27	864.89	1115.5	256.58	941.5	778.61	509.69	884.34	280.59	171.33	801.66	238.02	175.51	988.85	1567.7	225.58	1006.1	715.76	79.925	703.79	78.098	230.2	886.01	1329.1	365.79	602.68	248.84	197.27	1097	1344.4	263.98	867.48	305.88	105.97	660.98	230.47	149.52	733.83	49.604	210.25	1094.4	78.512	359.47	685.86	88.64	150.27	1111.8	92.814	269.04	870.54	1045.3	423.73	1291.6	36.476	290.19	976.49	1232.3	1.8195	1130.9	838.8	-39.279	1039.2	31.727	320.6
453	2.265	1007.9	1557.9	365	967.19	1426.7	280.37	1074.4	938.26	400.75	1028.4	1371.5	425.55	963.4	1184.4	498.93	898.41	1065.5	518.13	914.58	920.2	545.9	882.69	791.31	538.61	916.43	731.72	549.52	1010.7	1425.2	104.82	918.35	1103.4	58.634	1053.6	981.08	-38.259	1119.5	888.98	8.6561	1063.6	732.82	454.16	1123.6	557.04	418.33	1155.5	671.52	408.35	1152.3	459.36	399.25	1173.4	367.45	314	1155.1	179.3	310.51	1166.4	272.62	384.46	1171.7	276.46	312.02	1239.2	35.045	270.6	1214.6	30.917	360.15	1093.1	626.94	110.71	1094.6	643.87	440.85	1053.3	862.69	-34.391	1029.7	530.65	92.504	1021.2	619.65	82.562	946.83	1105.6	-19.192	880.63	939.77	209.97	884.94	947.7	315.32	982.44	322.57	165.29	1015.4	422.23	105.82	871.04	1116.9	257.04	954.46	779.67	510.03	898.15	282.47	170.92	815.28	240.15	175.03	995.59	1569.3	225.66	1014	716.97	79.778	717.73	80.337	228.58	892.76	1330.4	366.52	616.01	251.14	196.95	1103.2	1345.7	263.42	881.37	307.86	105.55	674.49	233.15	149.1	747.72	51.928	208.26	1094.5	78.59	359.37	699.66	91.578	148.85	1111.8	92.798	268.88	879.55	1045.6	424.79	1291.6	36.28	290.03	982	1233.6	1.8855	1133.6	838.45	-39.219	1039.2	31.744	320.54
454	2.27	1014.4	1559.1	364.99	973.45	1428.1	280.4	1080.7	939.5	400.75	1035.4	1372.8	425.2	972.33	1185.4	499.12	908.28	1066.1	519.15	926.27	920.89	546.62	895.89	791.7	539.6	930.48	732.59	550.36	1016.3	1426.6	104.66	923.18	1105.1	58.807	1057.6	981.68	-38.169	1122.7	888.87	8.6868	1068.8	733.59	453.97	1126.8	557.09	418.1	1159.9	671.32	408.02	1154.5	459.2	399.08	1174.1	366.92	314.2	1155.6	179.09	310.38	1167.4	272.32	384.32	1173	276.27	311.74	1239.2	35.081	270.5	1214.6	31.067	360.06	1102.8	629.61	110.08	1098.7	644.34	440.62	1056.3	863.33	-34.506	1041	532.21	92.056	1030.8	621.06	82.222	951.81	1107	-18.829	886.61	941.16	210.3	891.1	949.17	315.58	996.41	324.35	164.89	1028.9	423.94	105.34	877.16	1118.2	257.48	967.56	780.87	510.36	912.08	284.38	170.47	829.09	242.18	174.56	1002.3	1571	225.69	1021.9	718.3	79.568	732.24	82.396	227.01	899.47	1331.6	367.21	629.53	252.95	196.69	1109.3	1347	262.83	895.29	309.87	105.13	688.22	235.49	148.72	762.25	54.186	206.36	1094.6	78.66	359.28	713.98	94.273	147.47	1111.8	92.793	268.74	888.55	1046	425.87	1291.7	36.122	289.91	987.37	1234.9	1.9128	1136.3	838.18	-39.165	1039.1	31.756	320.49
